<svg xmlns="http://www.w3.org/2000/svg" xml:space="preserve" viewBox="0 0 653 653"><path fill="#7F94A7" d="M129 654c-40.688 0-81.375 0-122.453-.336 6.703-7.966 13.617-15.772 20.931-23.185 11.88-12.039 24.082-23.758 36.034-35.726 14.655-14.673 29.135-29.52 43.8-44.183 11.843-11.842 23.927-23.443 35.76-35.295 14.77-14.792 29.347-29.778 44.096-44.59a1673.092 1673.092 0 0 1 32.568-31.828c5.803.75 11.218 1.973 16.652 2.06 16.485.264 32.979.165 49.468.03 4.299-.034 8.656-.377 12.876-1.167 10.316-1.932 16.386-9.337 16.476-19.558.097-10.869-5.324-18.015-15.856-20.37-3.843-.86-7.898-.766-11.749-1.604-1.26-.274-3.084-2.096-3.11-3.244-.171-7.645.075-15.3.496-23 2.123-1.447 4.117-2.663 5.724-4.268 37.538-37.468 75.014-74.999 112.594-112.425 1.876-1.868 4.589-2.897 6.85-3.94-3.663 9.43-7.177 18.517-10.881 27.526-9.61 23.373-19.438 46.658-28.911 70.086-5.104 12.621-10.039 25.34-14.32 38.256-2.555 7.712-6.052 11.618-15.038 12.12-13.994.78-21.463 12.977-17.9 26.503 2.051 7.791 7.885 11.569 14.868 14.48-1.057 2.008-1.842 3.895-3.164 5.26-5.884 6.078-11.922 12.007-17.904 17.99l-32.715 32.714-32.714 32.714-29.18 29.182c-12.083 12.082-24.122 24.208-36.264 36.231-7.773 7.697-15.756 15.183-23.54 22.87-9.792 9.67-19.566 19.36-29.134 29.25-1.943 2.01-2.931 4.94-4.36 7.447z"/><path fill="#9DACBB" d="M242 1c35.02 0 70.042 0 105.46.349-3.82 5.164-7.85 10.162-12.3 14.754-6.552 6.758-13.466 13.164-20.112 19.833-9.222 9.254-18.278 18.675-27.523 27.907-6.547 6.538-13.392 12.778-19.919 19.336-9.332 9.374-18.387 19.025-27.757 28.361-11.824 11.781-23.915 23.294-35.763 35.051-12.792 12.693-25.511 25.463-38.058 38.398-1.628 1.678-2.04 4.538-3.48 6.907-15.28.005-30.094-.163-44.906-.037-5.125.044-10.361.284-15.34 1.377-10.192 2.237-14.088 8.995-15.182 18.908-.963 8.723 5.38 17.809 13.339 20.487 3.057 1.029 7.539 1.083 8.862 3.172 1.603 2.53.568 6.744.63 10.23.017.993-.12 1.99-.55 2.99-2.434 1.221-4.865 2.072-6.52 3.708a7216.78 7216.78 0 0 0-47.872 47.787c-12.264 12.35-24.33 24.897-36.632 37.208C12.77 343.336 6.803 348.586 1 354c0-37.02 0-74.042.34-111.61 1.847-1.558 3.557-2.363 4.832-3.612 12.7-12.434 25.408-24.863 37.956-37.45 13.484-13.527 26.711-27.31 40.214-40.818 12.8-12.804 25.905-25.303 38.703-38.108 13.855-13.863 27.424-28.01 41.277-41.874 12.444-12.454 25.149-24.646 37.657-37.037a4220.03 4220.03 0 0 0 36.966-37.049C240.353 5.012 241 2.832 242 1z"/><path fill="#A4B3C0" d="M241.531 1c-.53 1.832-1.178 4.012-2.586 5.442a4220.03 4220.03 0 0 1-36.966 37.05c-12.508 12.39-25.213 24.582-37.657 37.036-13.853 13.864-27.422 28.011-41.277 41.874-12.798 12.805-25.904 25.304-38.703 38.108-13.503 13.508-26.73 27.291-40.214 40.818-12.548 12.587-25.256 25.016-37.956 37.45-1.275 1.249-2.985 2.054-4.833 3.144C1 161.74 1 81.479 1 1h240.531z"/><path fill="#688298" d="M420 654c-38.02 0-76.042 0-114.506-.36 1.064-2.475 2.306-4.855 4.116-6.668 66.596-66.688 133.25-133.317 199.86-199.991 1.723-1.725 3.036-3.86 5.005-5.865 16.773-.076 33.082-.016 49.389-.156 4.47-.04 9-.32 13.387-1.118 11.617-2.112 18.157-11.661 16.48-23.378-.82-5.74-3.816-10.172-7.865-14.403 1.155-2.184 1.953-4.28 3.398-5.734a11307.083 11307.083 0 0 1 59.296-59.279c1.422-1.41 3.609-2.05 5.44-3.048 0 28.354 0 56.708-.36 85.557-1.887 1.415-3.619 2.113-4.9 3.298-3.296 3.044-6.392 6.304-9.567 9.478-15.53 15.531-31.068 31.056-46.59 46.595-13.88 13.894-27.739 27.81-41.616 41.707-11.754 11.77-23.52 23.529-35.282 35.293-14.944 14.949-29.885 29.9-44.833 44.846-11.764 11.76-23.664 23.39-35.25 35.323-5.506 5.671-10.42 11.917-15.602 17.903z"/><path fill="#5F7A92" d="M420.469 654c4.713-5.986 9.627-12.232 15.133-17.903 11.586-11.934 23.486-23.562 35.25-35.323 14.948-14.945 29.89-29.897 44.833-44.846 11.761-11.764 23.528-23.522 35.282-35.293 13.877-13.898 27.736-27.813 41.616-41.707 15.522-15.54 31.06-31.064 46.59-46.595 3.175-3.174 6.271-6.434 9.566-9.478 1.282-1.185 3.014-1.883 4.9-2.829C654 497.927 654 575.854 654 654H420.469z"/><path fill="#70889D" d="M514.01 441.177c-1.504 1.944-2.817 4.079-4.54 5.804-66.61 66.674-133.264 133.303-199.86 199.99-1.81 1.814-3.052 4.194-4.584 6.67-37.047.359-74.068.359-111.486.012 2.887-4.216 5.974-8.277 9.498-11.913 7.35-7.584 14.928-14.946 22.417-22.395 3.395-3.377 6.79-6.753 10.203-10.113 6.943-6.836 13.945-13.615 20.834-20.505 6.418-6.418 12.702-12.97 19.082-19.426a5491.477 5491.477 0 0 1 20.945-21.055c6.304-6.31 12.61-12.619 18.96-18.881 6.938-6.843 13.988-13.571 20.879-20.46 6.418-6.418 12.62-13.052 19.048-19.46 6.43-6.412 13.062-12.618 19.528-18.994 7.636-7.53 15.26-15.075 22.725-22.773 1.786-1.842 2.919-4.317 4.813-6.56 3.936-.145 7.43-.034 10.883-.352 13.943-1.282 21.427-7.716 22.136-19.537.22-3.689-1.03-7.465-1.239-11.229 2.132-1.155 4.157-2.018 5.62-3.453 8.987-8.816 17.876-17.733 26.728-26.686 1.955-1.977 3.627-4.234 5.89-6.445 11.258-.11 22.058-.197 32.856-.09 1.443.013 3.753.63 4.176 1.61 3.2 7.404 6.03 14.968 9.307 23.328-3.305 0-5.62-.238-7.867.046-6.06.766-12.338.991-18.075 2.84-7.888 2.542-11.73 8.954-11.915 17.217-.187 8.363 1.426 16.607 10.366 19.417 7.201 2.264 15.089 2.344 22.672 3.393z"/><path fill="#869AAC" d="M573 1h81c0 13.353 0 26.708-.334 40.607-2.12 2-4.05 3.313-5.67 4.935-53.39 53.476-106.749 106.98-160.36 160.23-1.578-3.474-3.126-6.63-4.188-9.94-1.248-3.894-3.531-5.036-7.629-5.02-29.602.108-59.204-.066-88.798-.507 2.6-3.654 4.903-7.234 7.828-10.202a11857.545 11857.545 0 0 1 60.15-60.57c17.173-17.178 34.495-34.207 51.692-51.362a20684.236 20684.236 0 0 0 63.123-63.236C571.164 4.577 571.95 2.658 573 1z"/><path fill="#95A6B5" d="M163.014 191.839c.975-2.312 1.386-5.172 3.014-6.85 12.547-12.935 25.266-25.705 38.058-38.398 11.848-11.757 23.939-23.27 35.763-35.051 9.37-9.336 18.425-18.987 27.757-28.361 6.527-6.558 13.372-12.798 19.92-19.336 9.244-9.232 18.3-18.653 27.522-27.907 6.646-6.67 13.56-13.075 20.111-19.833 4.45-4.592 8.482-9.59 12.77-14.754C379.689 1 411.376 1 443.463 1.346c-.984 2.378-2.099 4.675-3.796 6.4a3033.264 3033.264 0 0 1-31.998 32.056c-14.061 13.87-28.25 27.612-42.335 41.458-5.916 5.816-11.727 11.74-17.557 17.644-8.975 9.09-17.871 18.259-26.902 27.293-6.805 6.806-13.82 13.4-20.649 20.184-10.121 10.054-20.31 20.049-30.167 30.357-4.395 4.596-8.055 9.894-12.512 14.953-9.764.154-19.073-.005-28.362.364-11.097.44-18.722 5.703-21.096 14.366-2.681 9.789-.163 18.023 7.836 24.543-4.67 4.253-9.177 8.163-13.521 12.247-2.04 1.917-3.672 4.26-5.647 6.253-9.431 9.515-18.742 19.16-28.459 28.377-4.727 4.485-10.249 8.132-15.492 11.694-.096-16.911-.013-33.361-.199-49.808-.044-3.898 1.237-5.21 5.127-5.24 4.454-.035 8.985-.467 13.337-1.403 10.072-2.165 15.677-9.016 15.98-18.842.334-10.866-4.502-17.817-14.758-20.775-3-.865-6.18-1.103-9.278-1.628z"/><path fill="#8C9FB0" d="M572.531 1c-.58 1.658-1.367 3.577-2.717 4.935a20684.236 20684.236 0 0 1-63.123 63.236c-17.197 17.155-34.519 34.184-51.693 51.361a11857.545 11857.545 0 0 0-60.15 60.57c-2.924 2.969-5.228 6.55-8.254 10.295-2.402.668-4.393.753-6.33 1.128-10.779 2.084-17.303 7.816-17.986 16.885-.337 4.47.982 9.067 1.219 13.68-2.581 1.714-5.088 3.091-7.038 5.03-22.109 21.984-44.114 44.072-66.219 66.06-1.572 1.564-3.71 2.56-5.704 3.367-.16-19.89-.138-39.328-.298-58.763-.028-3.373 1.23-4.415 4.473-5.047 11.17-2.175 17.832-9.098 17.83-19.508 0-4.734-2.36-9.468-3.403-14.427 15.352-15.484 30.433-30.763 45.563-45.993 24.991-25.156 49.966-50.328 75.039-75.403 24.247-24.25 48.623-48.372 72.89-72.601C497.995 4.444 498.889 2.612 500 1h72.531z"/><path fill="#798FA3" d="M654 106c0 43.688 0 87.375-.334 131.607-2.117 1.998-4.042 3.31-5.662 4.927-32.82 32.764-65.592 65.577-98.435 98.318-1.704 1.698-3.956 2.846-6.19 4-5.119-12.407-10.02-24.556-14.88-36.721-7.194-18.008-14.358-36.028-21.388-54.365 1.479-2.387 2.491-4.769 4.187-6.469 45.916-46.032 91.894-92 137.906-137.936 1.36-1.359 3.187-2.251 4.796-3.361z"/><path fill="#869AAC" d="M219.356 438.81c-10.734 10.62-21.534 21.174-32.188 31.874-14.749 14.813-29.325 29.799-44.096 44.591-11.833 11.852-23.917 23.453-35.76 35.295-14.665 14.663-29.145 29.51-43.8 44.183-11.952 11.968-24.155 23.687-36.034 35.726-7.314 7.413-14.228 15.219-21.4 23.185C4.342 654 2.685 654 1 654c0-25.02 0-50.042.36-75.556 2.702-2.246 5.288-3.752 7.346-5.792 11.7-11.593 23.247-23.34 34.898-34.983 14.953-14.941 29.965-29.822 44.932-44.75 12.133-12.1 24.341-24.127 36.298-36.399 4.697-4.82 8.801-10.217 13.64-15.408 10.767-.419 21.149-.11 31.35-1.323 11.507-1.368 17.56-9.703 17.261-21.313-.145-5.661-2.568-10.217-6.066-14.697 1.324-2.274 2.284-4.479 3.862-6.07 16.586-16.728 33.224-33.405 49.996-49.946 1.764-1.74 4.48-2.515 6.825-3.276.097 16.741.04 33.021.218 49.299.038 3.526-1.197 4.461-4.593 4.577-5.117.175-10.335.538-15.285 1.745-9.11 2.22-14.488 9.13-14.897 18.274-.422 9.443 3.733 16.254 12.211 20.428z"/><path fill="#798FA3" d="M402.011 441.178c-1.433 2.183-2.566 4.658-4.352 6.5-7.465 7.698-15.089 15.243-22.725 22.773-6.466 6.376-13.099 12.582-19.528 18.993-6.427 6.41-12.63 13.043-19.048 19.46-6.89 6.89-13.941 13.618-20.88 20.46-6.35 6.263-12.655 12.572-18.959 18.882a5491.477 5491.477 0 0 0-20.945 21.055c-6.38 6.456-12.664 13.008-19.082 19.426-6.89 6.89-13.89 13.669-20.834 20.505-3.412 3.36-6.808 6.736-10.203 10.113-7.489 7.45-15.067 14.81-22.417 22.395-3.524 3.636-6.61 7.697-9.967 11.913-21.092.347-42.113.347-63.602.347.96-2.506 1.948-5.438 3.891-7.446 9.568-9.89 19.342-19.582 29.134-29.252 7.784-7.686 15.767-15.172 23.54-22.869 12.142-12.023 24.18-24.149 36.263-36.231l29.181-29.182 32.714-32.714 32.715-32.715c5.982-5.982 12.02-11.91 17.904-17.988 1.322-1.366 2.107-3.253 3.59-5.278 6.236-.025 12.018.563 17.807.636 15.266.192 30.535.16 45.803.217z"/><path fill="#95A6B5" d="M1 354.469c5.803-5.883 11.77-11.133 17.377-16.743 12.302-12.31 24.368-24.858 36.632-37.208a7216.78 7216.78 0 0 1 47.872-47.787c1.655-1.636 4.086-2.487 6.576-3.243.44 7.597.488 14.735.477 21.874-.044 29.215-.107 58.43-.516 87.673-2.121 1.132-4.135 1.98-5.611 3.39-4.317 4.122-8.396 8.492-12.611 12.72-8.646 8.674-17.32 17.32-25.982 25.976l-22.18 22.162c-8.548 8.539-16.966 17.21-25.691 25.563C12.143 453.824 6.463 458.3 1 463V354.469z"/><path fill="#90A2B2" d="M499.531 1c-.643 1.612-1.537 3.444-2.9 4.805-24.268 24.23-48.644 48.352-72.891 72.601-25.073 25.075-50.048 50.247-75.039 75.403-15.13 15.23-30.21 30.51-45.852 45.831-5.745-5.664-12.64-7.28-19.924-7.57-8.299-.33-16.61-.32-24.916-.459 3.994-4.979 7.654-10.277 12.049-14.873 9.858-10.308 20.046-20.303 30.167-30.357 6.829-6.783 13.844-13.378 20.649-20.184 9.031-9.034 17.927-18.203 26.902-27.293 5.83-5.904 11.64-11.828 17.557-17.644 14.086-13.846 28.274-27.588 42.335-41.458a3033.264 3033.264 0 0 0 31.998-32.056c1.697-1.725 2.812-4.022 4.265-6.4C462.354 1 480.708 1 499.53 1z"/><path fill="#7F94A7" d="M654 105.531c-1.61 1.579-3.435 2.471-4.796 3.83a93433.682 93433.682 0 0 0-137.906 137.936c-1.696 1.7-2.708 4.082-4.436 6.21-6.59-15.45-12.785-30.967-18.98-46.484 53.365-53.5 106.725-107.005 160.114-160.48 1.62-1.623 3.55-2.935 5.67-4.467C654 63.02 654 84.042 654 105.53z"/><path fill="#70889D" d="M543.616 345.102c1.997-1.404 4.25-2.552 5.953-4.25 32.843-32.741 65.615-65.554 98.435-98.318 1.62-1.617 3.545-2.93 5.662-4.459.334 31.613.334 63.3.334 95.456-1.831 1.467-4.018 2.107-5.44 3.517-19.842 19.683-39.6 39.45-59.296 59.279-1.445 1.454-2.243 3.55-3.737 5.576-5.835-1-11.305-2.118-16.7-3.522-1.7-.442-4.113-1.269-4.652-2.564-7.015-16.837-13.752-33.79-20.559-50.715z"/><path fill="#8C9FB0" d="M138.01 441.169c-4.375 5.134-8.48 10.531-13.176 15.351-11.957 12.272-24.165 24.299-36.298 36.4-14.967 14.927-29.98 29.808-44.932 44.75-11.651 11.642-23.198 23.39-34.898 34.982-2.058 2.04-4.644 3.546-7.346 5.323C1 560.98 1 543.958 1.334 526.392c1.765-1.649 3.338-2.61 4.607-3.877a40200.14 40200.14 0 0 0 79.414-79.44c1.472-1.477 2.458-3.441 4.05-5.117 6.372 1.054 12.334 2.603 18.36 2.913 10.06.516 20.161.24 30.244.298z"/><path fill="#90A2B2" d="M89.025 437.896c-1.212 1.738-2.198 3.702-3.67 5.18a40200.14 40200.14 0 0 1-79.414 79.44c-1.269 1.266-2.842 2.227-4.607 3.407C1 505.313 1 484.625 1 463.47c5.464-5.17 11.144-9.645 16.343-14.623 8.725-8.352 17.143-17.024 25.69-25.563 7.394-7.386 14.788-14.774 22.18-22.162 8.663-8.656 17.337-17.302 25.983-25.975 4.215-4.23 8.294-8.6 12.61-12.721 1.477-1.41 3.49-2.258 5.672-2.925.388 12.797.363 25.157.182 37.67-.358.367-.527.605-1.102.944-6.887 1.247-13.994 1.076-19.647 3.859-12.3 6.055-14.61 26.504.114 35.923z"/><path fill="#FEFFFF" d="M109.816 397.016c.025-12.36.05-24.719.015-37.543-.004-29.68.059-58.896.103-88.111.011-7.139-.037-14.277-.114-21.88.01-1.46.148-2.456.13-3.449-.061-3.486.974-7.7-.63-10.23-1.322-2.089-5.804-2.143-8.861-3.172-7.96-2.678-14.302-11.764-13.34-20.487 1.095-9.913 4.99-16.67 15.184-18.908 4.978-1.093 10.214-1.333 15.339-1.377 14.812-.126 29.626.042 44.905.037 3.565.468 6.745.706 9.745 1.571 10.256 2.958 15.092 9.909 14.758 20.775-.303 9.826-5.908 16.677-15.98 18.842-4.352.936-8.883 1.368-13.337 1.402-3.89.03-5.17 1.343-5.127 5.24.186 16.448.103 32.898.128 50.253-.594 4.633 1.386 5.347 4.637 5.34 26.63-.067 53.26-.061 79.89.047 3.363.014 4.71-.935 4.679-4.513-.151-17.309-.137-34.62-.033-51.928.02-3.233-1.17-4.066-4.312-4.462-7.192-.908-14.3-2.472-21.442-3.77-8.228-6.25-10.746-14.483-8.065-24.272 2.374-8.663 10-13.926 21.096-14.366 9.289-.37 18.598-.21 28.362-.364 8.769.058 17.08.049 25.379.379 7.284.29 14.18 1.906 19.675 7.796 1.58 4.895 3.941 9.629 3.942 14.363 0 10.41-6.66 17.333-17.83 19.508-3.244.632-4.502 1.674-4.474 5.047.16 19.435.138 38.872.187 59.22-.038 16.675-.137 32.438-.112 48.201.014 8.616.237 17.232.365 25.848-.11 7.651-.356 15.306-.185 22.951.026 1.148 1.85 2.97 3.11 3.244 3.85.838 7.906.744 11.75 1.604 10.531 2.355 15.952 9.501 15.855 20.37-.09 10.22-6.16 17.626-16.476 19.558-4.22.79-8.577 1.133-12.876 1.168-16.49.134-32.983.233-49.468-.031-5.434-.087-10.849-1.31-16.652-2.06-8.858-4.221-13.013-11.032-12.59-20.475.408-9.145 5.786-16.054 14.896-18.274 4.95-1.207 10.168-1.57 15.285-1.745 3.396-.116 4.631-1.051 4.593-4.577-.178-16.278-.12-32.558-.138-49.724a235.655 235.655 0 0 0-.208-5.437c-.86-.3-1.168-.502-1.476-.502-27.994-.038-55.989-.024-83.982-.13-3.628-.014-3.448 2.215-3.449 4.617-.005 16.998.082 33.997-.1 50.992-.042 3.893 1.497 4.715 5.024 4.733 8.206.042 16.324.835 23.352 5.798 3.574 4.126 5.997 8.682 6.142 14.343.3 11.61-5.754 19.945-17.262 21.313-10.2 1.213-20.582.904-31.349 1.323-10.548-.001-20.648.275-30.708-.241-6.027-.31-11.99-1.859-18.361-2.913-15.104-9.48-12.793-29.93-.494-35.985 5.653-2.783 12.76-2.612 19.89-3.92.792-.44.904-.738 1.015-1.037zM543.38 344.851c7.043 17.175 13.78 34.129 20.795 50.966.54 1.295 2.953 2.122 4.652 2.564 5.395 1.404 10.865 2.522 16.645 3.908 4.443 4.003 7.438 8.435 8.26 14.175 1.676 11.717-4.864 21.266-16.48 23.378-4.389.798-8.919 1.079-13.388 1.118-16.307.14-32.616.08-49.39.156-8.047-.988-15.935-1.068-23.136-3.332-8.94-2.81-10.553-11.054-10.366-19.417.185-8.263 4.027-14.675 11.915-17.217 5.737-1.849 12.015-2.074 18.075-2.84 2.248-.284 4.562-.046 7.867-.046-3.277-8.36-6.106-15.924-9.307-23.329-.423-.98-2.733-1.596-4.176-1.61-10.798-.106-21.598-.02-33.318-.007-20.852-.035-40.784-.09-60.714-.007-1.436.005-3.73.634-4.165 1.618-3.303 7.475-6.243 15.111-9.465 23.117 5.878.268 10.831.464 15.781.726 8.614.455 15.76 3.609 20.42 11.255.576 3.737 1.827 7.513 1.606 11.202-.709 11.82-8.193 18.255-22.136 19.537-3.454.318-6.947.207-10.883.352-15.729.003-30.998.035-46.264-.157-5.789-.073-11.57-.66-17.782-.996-7.434-2.534-13.268-6.312-15.32-14.103-3.562-13.526 3.907-25.723 17.9-26.504 8.987-.5 12.484-4.407 15.04-12.12 4.28-12.916 9.215-25.634 14.319-38.255 9.473-23.428 19.3-46.713 28.91-70.086 3.705-9.01 7.219-18.097 11.117-27.776 2.365-5.755 4.432-10.883 6.9-17.007-11.778 0-22.38.207-32.972-.065-8.548-.22-15.913-3.176-20.49-11.033-.57-4.54-1.889-9.135-1.552-13.606.683-9.069 7.207-14.801 17.987-16.885 1.936-.375 3.927-.46 6.32-.771 30.03-.008 59.632.166 89.234.057 4.098-.015 6.381 1.127 7.63 5.02 1.061 3.312 2.609 6.467 4.188 9.942 6.44 15.767 12.635 31.283 19.078 47.058 7.426 18.272 14.59 36.292 21.784 54.3 4.86 12.165 9.761 24.314 14.88 36.72m-98.878-14.05h46.99l-33.372-82.028-33.53 82.028h19.912z"/><path fill="#869AAC" d="M363.497 223.09c4.91 7.783 12.275 10.74 20.823 10.96 10.591.271 21.194.064 32.972.064-2.468 6.124-4.535 11.252-6.838 16.63-2.558 1.67-5.27 2.699-7.147 4.567-37.58 37.426-75.056 74.957-112.594 112.425-1.607 1.605-3.6 2.821-5.724 4.267a520.788 520.788 0 0 1-.676-25.798c-.025-15.763.074-31.526.232-47.747 1.985-1.718 4.123-2.714 5.695-4.278 22.105-21.988 44.11-44.076 66.22-66.06 1.949-1.939 4.456-3.316 7.037-5.03z"/><path fill="#798FA3" d="M434.252 410c-5.027-7.62-12.173-10.773-20.787-11.228-4.95-.262-9.903-.458-15.78-.726 3.221-8.006 6.16-15.642 9.464-23.117.435-.984 2.729-1.613 4.165-1.618 19.93-.083 39.862-.028 60.254.09-1.34 2.226-3.013 4.483-4.968 6.46-8.852 8.953-17.74 17.87-26.728 26.686-1.463 1.435-3.488 2.298-5.62 3.453z"/><path fill="#90A2B2" d="M215.924 230.964c7.371 1.027 14.48 2.591 21.67 3.499 3.143.396 4.333 1.229 4.313 4.462-.104 17.309-.118 34.62.033 51.928.031 3.578-1.316 4.527-4.68 4.513-26.63-.108-53.26-.114-79.89-.048-3.25.008-5.23-.706-4.555-4.876 5.233-4.47 10.755-8.116 15.482-12.6 9.717-9.217 19.028-18.863 28.459-28.378 1.975-1.993 3.607-4.336 5.647-6.253 4.344-4.084 8.851-7.994 13.52-12.247z"/><path fill="#8C9FB0" d="M181.02 403.779c-7.105-4.609-15.223-5.402-23.43-5.444-3.526-.018-5.065-.84-5.024-4.733.183-16.995.096-33.994.101-50.992 0-2.402-.18-4.63 3.449-4.617 27.993.106 55.988.092 83.982.13.308 0 .617.202 1.476.502.066 1.371.141 2.96.137 4.975-2.355 1.648-5.07 2.424-6.834 4.163-16.772 16.54-33.41 33.218-49.996 49.946-1.578 1.591-2.538 3.796-3.862 6.07z"/><path fill="#9DACBB" d="M109.66 397.17c.045.145-.067.443-.42.803-.107-.198.062-.436.42-.804z"/><path fill="#7F94A7" d="M444 330.802H424.59l33.53-82.029 33.372 82.029h-47.49z"/></svg>